<svg width="70" height="71" viewBox="0 0 70 71" fill="none" xmlns="http://www.w3.org/2000/svg">
<path d="M60 0.5H10C4.47715 0.5 0 4.97715 0 10.5V60.5C0 66.0229 4.47715 70.5 10 70.5H60C65.5229 70.5 70 66.0229 70 60.5V10.5C70 4.97715 65.5229 0.5 60 0.5Z" fill="#F3FCF7"/>
<path d="M30.548 31.05C31.002 30.5952 31.311 30.0161 31.436 29.3858C31.561 28.7556 31.4963 28.1024 31.2501 27.5088C31.004 26.9153 30.5874 26.408 30.0531 26.0511C29.5187 25.6943 28.8906 25.5038 28.248 25.5038C27.6055 25.5038 26.9773 25.6943 26.443 26.0511C25.9087 26.408 25.4921 26.9153 25.246 27.5088C24.9998 28.1024 24.9351 28.7556 25.0601 29.3858C25.1851 30.0161 25.4941 30.5952 25.948 31.05C26.2499 31.3523 26.6084 31.5922 27.0031 31.7559C27.3977 31.9195 27.8208 32.0038 28.248 32.0038C28.6753 32.0038 29.0984 31.9195 29.493 31.7559C29.8877 31.5922 30.2462 31.3523 30.548 31.05ZM43.548 39.45C43.0933 38.996 42.5142 38.687 41.8839 38.562C41.2536 38.4371 40.6004 38.5017 40.0069 38.7479C39.4133 38.994 38.9061 39.4106 38.5492 39.9449C38.1923 40.4793 38.0019 41.1074 38.0019 41.75C38.0019 42.3925 38.1923 43.0207 38.5492 43.555C38.9061 44.0894 39.4133 44.5059 40.0069 44.7521C40.6004 44.9982 41.2536 45.0629 41.8839 44.9379C42.5142 44.813 43.0933 44.504 43.548 44.05C43.8504 43.7481 44.0903 43.3896 44.2539 42.9949C44.4176 42.6003 44.5019 42.1772 44.5019 41.75C44.5019 41.3227 44.4176 40.8997 44.2539 40.505C44.0903 40.1104 43.8504 39.7518 43.548 39.45ZM43.448 27.698L42.3 26.55C42.1492 26.3987 41.9699 26.2786 41.7726 26.1967C41.5753 26.1148 41.3637 26.0727 41.15 26.0727C40.9364 26.0727 40.7248 26.1148 40.5275 26.1967C40.3301 26.2786 40.1509 26.3987 40 26.55L26.051 40.503C25.8997 40.6538 25.7797 40.8331 25.6978 41.0304C25.6159 41.2278 25.5737 41.4393 25.5737 41.653C25.5737 41.8666 25.6159 42.0782 25.6978 42.2755C25.7797 42.4729 25.8997 42.6521 26.051 42.803L27.2 43.95C27.3509 44.1013 27.5301 44.2213 27.7275 44.3032C27.9248 44.3851 28.1364 44.4273 28.35 44.4273C28.5637 44.4273 28.7753 44.3851 28.9726 44.3032C29.1699 44.2213 29.3492 44.1013 29.5 43.95L43.449 29.997C43.6003 29.8461 43.7204 29.6669 43.8023 29.4695C43.8842 29.2722 43.9264 29.0606 43.9264 28.847C43.9264 28.6333 43.8842 28.4218 43.8023 28.2244C43.7204 28.0271 43.6003 27.8478 43.449 27.697L43.448 27.698Z" fill="#06C167"/>
</svg>
