<svg width="23" height="11" viewBox="0 0 23 11" fill="none" xmlns="http://www.w3.org/2000/svg">
<path d="M15.875 3.50292H0.790979C0.631849 3.50292 0.479237 3.56614 0.366715 3.67866C0.254193 3.79118 0.190979 3.9438 0.190979 4.10293L0.190979 6.90292C0.190979 6.98172 0.206498 7.05974 0.236651 7.13253C0.266804 7.20533 0.311 7.27147 0.366715 7.32719C0.42243 7.3829 0.488574 7.4271 0.561369 7.45725C0.634164 7.48741 0.712186 7.50292 0.790979 7.50292H15.875V9.80293C15.8754 10.0399 15.9459 10.2715 16.0778 10.4684C16.2096 10.6653 16.3968 10.8188 16.6157 10.9095C16.8346 11.0002 17.0755 11.024 17.308 10.978C17.5405 10.932 17.7541 10.8182 17.922 10.6509L22.222 6.35092C22.3339 6.23944 22.4226 6.10697 22.4832 5.96111C22.5437 5.81525 22.5749 5.65886 22.5749 5.50093C22.5749 5.34299 22.5437 5.1866 22.4832 5.04074C22.4226 4.89488 22.3339 4.76241 22.222 4.65093L17.922 0.350925C17.7541 0.183657 17.5405 0.0698383 17.308 0.0238199C17.0755 -0.0221985 16.8346 0.00164382 16.6157 0.0923414C16.3968 0.183039 16.2096 0.33653 16.0778 0.533462C15.9459 0.730393 15.8754 0.961946 15.875 1.19893V3.50292Z" fill="#06C167"/>
</svg>
