<svg width="70" height="71" viewBox="0 0 70 71" fill="none" xmlns="http://www.w3.org/2000/svg">
<path d="M60 0.5H10C4.47715 0.5 0 4.97715 0 10.5V60.5C0 66.0229 4.47715 70.5 10 70.5H60C65.5229 70.5 70 66.0229 70 60.5V10.5C70 4.97715 65.5229 0.5 60 0.5Z" fill="#F3FCF7"/>
<path d="M50.438 40.375H49.626V34.886C49.6247 34.2401 49.3672 33.6212 48.91 33.165L43.836 28.091C43.3798 27.6338 42.7609 27.3763 42.115 27.375H39.875V24.938C39.875 24.2916 39.6183 23.6716 39.1613 23.2144C38.7043 22.7572 38.0844 22.5003 37.438 22.5H21.188C20.5414 22.5 19.9213 22.7569 19.4641 23.2141C19.0069 23.6713 18.75 24.2914 18.75 24.938V41.188C18.75 41.8346 19.0069 42.4547 19.4641 42.9119C19.9213 43.3691 20.5414 43.626 21.188 43.626H22C22 44.9189 22.5136 46.1589 23.4279 47.0731C24.3421 47.9874 25.5821 48.501 26.875 48.501C28.1679 48.501 29.4079 47.9874 30.3221 47.0731C31.2364 46.1589 31.75 44.9189 31.75 43.626H38.25C38.25 44.9189 38.7636 46.1589 39.6779 47.0731C40.5921 47.9874 41.8321 48.501 43.125 48.501C44.4179 48.501 45.6579 47.9874 46.5721 47.0731C47.4864 46.1589 48 44.9189 48 43.626H50.438C50.6533 43.6255 50.8596 43.5398 51.0119 43.3876C51.1643 43.2355 51.2502 43.0293 51.251 42.814V41.188C51.2505 40.9725 51.1646 40.7661 51.0123 40.6137C50.8599 40.4614 50.6535 40.3755 50.438 40.375ZM26.875 46.063C26.3928 46.063 25.9214 45.92 25.5204 45.6521C25.1195 45.3841 24.807 45.0033 24.6225 44.5578C24.438 44.1122 24.3898 43.622 24.4839 43.149C24.5781 42.676 24.8104 42.2416 25.1514 41.9007C25.4925 41.5598 25.927 41.3277 26.4 41.2337C26.873 41.1398 27.3632 41.1882 27.8087 41.3729C28.2541 41.5575 28.6348 41.8702 28.9026 42.2712C29.1704 42.6723 29.3132 43.1438 29.313 43.626C29.3127 44.2724 29.0558 44.8923 28.5986 45.3493C28.1414 45.8063 27.5214 46.063 26.875 46.063ZM43.125 46.063C42.6428 46.063 42.1714 45.92 41.7704 45.6521C41.3695 45.3841 41.057 45.0033 40.8725 44.5578C40.688 44.1122 40.6398 43.622 40.7339 43.149C40.8281 42.676 41.0604 42.2416 41.4014 41.9007C41.7425 41.5598 42.177 41.3277 42.65 41.2337C43.123 41.1398 43.6132 41.1882 44.0587 41.3729C44.5041 41.5575 44.8848 41.8702 45.1526 42.2712C45.4204 42.6723 45.5632 43.1438 45.563 43.626C45.5627 44.2724 45.3058 44.8923 44.8486 45.3493C44.3914 45.8063 43.7714 46.063 43.125 46.063ZM47.188 35.5H39.875V29.813H42.114L47.187 34.886L47.188 35.5Z" fill="#06C167"/>
</svg>
