<svg width="70" height="71" viewBox="0 0 70 71" fill="none" xmlns="http://www.w3.org/2000/svg">
<path d="M60 0.5H10C4.47715 0.5 0 4.97715 0 10.5V60.5C0 66.0229 4.47715 70.5 10 70.5H60C65.5229 70.5 70 66.0229 70 60.5V10.5C70 4.97715 65.5229 0.5 60 0.5Z" fill="#F3FCF7"/>
<path d="M45.42 29.375H26.063C25.8524 29.3676 25.653 29.2788 25.5066 29.1272C25.3603 28.9756 25.2785 28.7732 25.2785 28.5625C25.2785 28.3518 25.3603 28.1493 25.5066 27.9978C25.653 27.8462 25.8524 27.7574 26.063 27.75H45.563C45.6697 27.7501 45.7754 27.7292 45.874 27.6885C45.9727 27.6477 46.0623 27.5879 46.1378 27.5125C46.2133 27.4371 46.2732 27.3475 46.3141 27.2489C46.355 27.1504 46.376 27.0447 46.376 26.938C46.376 26.6179 46.313 26.301 46.1905 26.0054C46.068 25.7097 45.8885 25.4411 45.6622 25.2148C45.4359 24.9885 45.1673 24.809 44.8716 24.6865C44.5759 24.564 44.259 24.501 43.939 24.501H25.25C24.3882 24.501 23.5617 24.8432 22.9523 25.4525C22.3428 26.0618 22.0003 26.8882 22 27.75V44C22 44.8619 22.3424 45.6886 22.9519 46.2981C23.5614 46.9076 24.388 47.25 25.25 47.25H45.42C46.085 47.2677 46.7299 47.0212 47.2134 46.5645C47.697 46.1077 47.9799 45.4779 48 44.813V31.813C47.9801 31.1479 47.6974 30.5178 47.2138 30.0608C46.7302 29.6038 46.0851 29.3572 45.42 29.375ZM43.12 39.938C42.7986 39.938 42.4844 39.8427 42.2172 39.6641C41.95 39.4856 41.7417 39.2318 41.6187 38.9348C41.4957 38.6379 41.4635 38.3112 41.5262 37.996C41.5889 37.6807 41.7437 37.3912 41.971 37.1639C42.1982 36.9367 42.4878 36.7819 42.803 36.7192C43.1182 36.6565 43.4449 36.6887 43.7419 36.8117C44.0388 36.9347 44.2926 37.1429 44.4711 37.4102C44.6497 37.6774 44.745 37.9916 44.745 38.313C44.745 38.7431 44.5745 39.1557 44.2708 39.4603C43.9672 39.7649 43.5551 39.9367 43.125 39.938H43.12Z" fill="#06C167"/>
</svg>
