<svg width="23" height="11" viewBox="0 0 23 11" fill="none" xmlns="http://www.w3.org/2000/svg">
<path d="M16.279 3.50292H1.19497C1.03584 3.50292 0.883228 3.56614 0.770707 3.67866C0.658185 3.79118 0.594971 3.9438 0.594971 4.10293L0.594971 6.90292C0.594971 6.98172 0.61049 7.05974 0.640643 7.13253C0.670796 7.20533 0.714991 7.27147 0.770707 7.32719C0.826422 7.3829 0.892565 7.4271 0.965361 7.45725C1.03816 7.48741 1.11618 7.50292 1.19497 7.50292H16.279V9.80293C16.2794 10.0399 16.3499 10.2715 16.4818 10.4684C16.6136 10.6653 16.8008 10.8188 17.0197 10.9095C17.2386 11.0002 17.4795 11.024 17.712 10.978C17.9445 10.932 18.1581 10.8182 18.326 10.6509L22.626 6.35092C22.7378 6.23944 22.8266 6.10697 22.8872 5.96111C22.9477 5.81525 22.9789 5.65886 22.9789 5.50093C22.9789 5.34299 22.9477 5.1866 22.8872 5.04074C22.8266 4.89488 22.7378 4.76241 22.626 4.65093L18.326 0.350925C18.1581 0.183657 17.9445 0.0698383 17.712 0.0238199C17.4795 -0.0221985 17.2386 0.00164382 17.0197 0.0923414C16.8008 0.183039 16.6136 0.33653 16.4818 0.533462C16.3499 0.730393 16.2794 0.961946 16.279 1.19893V3.50292Z" fill="white"/>
</svg>
