<svg width="101" height="21" viewBox="0 0 101 21" fill="none" xmlns="http://www.w3.org/2000/svg">
<path d="M10.2 12.0653L10.766 8.37732H7.227V5.98332C7.20214 5.70748 7.23973 5.42959 7.33698 5.17027C7.43423 4.91095 7.58864 4.67687 7.78875 4.4854C7.98886 4.29394 8.22953 4.15001 8.49289 4.0643C8.75625 3.97859 9.03553 3.9533 9.31 3.99032H10.919V0.850318C9.97303 0.69759 9.01713 0.614367 8.059 0.601318C5.144 0.601318 3.239 2.36832 3.239 5.56532V8.37632H0V12.0643H3.24V20.9813H7.227V12.0653H10.2Z" fill="#1D1D1F"/>
<path d="M44.923 4.99129C44.0183 4.99129 43.134 5.25955 42.3818 5.76214C41.6296 6.26474 41.0434 6.9791 40.6972 7.81489C40.351 8.65068 40.2604 9.57036 40.4369 10.4576C40.6134 11.3449 41.049 12.1599 41.6887 12.7996C42.3284 13.4393 43.1434 13.8749 44.0307 14.0514C44.9179 14.2279 45.8376 14.1373 46.6734 13.7911C47.5092 13.4449 48.2235 12.8587 48.7261 12.1065C49.2287 11.3543 49.497 10.4699 49.497 9.56529C49.4981 8.96432 49.3805 8.36907 49.151 7.81365C48.9215 7.25823 48.5846 6.75358 48.1597 6.32863C47.7347 5.90369 47.2301 5.56681 46.6746 5.33732C46.1192 5.10783 45.524 4.99024 44.923 4.99129ZM44.923 12.5383C44.335 12.5383 43.7602 12.3639 43.2713 12.0372C42.7824 11.7106 42.4013 11.2462 42.1763 10.703C41.9513 10.1598 41.8924 9.56199 42.0071 8.98528C42.1218 8.40858 42.405 7.87884 42.8208 7.46306C43.2366 7.04728 43.7663 6.76413 44.343 6.64941C44.9197 6.5347 45.5175 6.59358 46.0607 6.81859C46.604 7.04361 47.0683 7.42467 47.395 7.91358C47.7216 8.40248 47.896 8.97728 47.896 9.56529C47.8944 10.3533 47.5807 11.1086 47.0235 11.6658C46.4663 12.223 45.711 12.5367 44.923 12.5383ZM50.75 4.80429C50.75 5.01532 50.6874 5.22161 50.5702 5.39708C50.4529 5.57255 50.2863 5.70931 50.0913 5.79007C49.8964 5.87083 49.6818 5.89196 49.4748 5.85079C49.2679 5.80962 49.0777 5.70799 48.9285 5.55877C48.7793 5.40955 48.6777 5.21943 48.6365 5.01245C48.5953 4.80547 48.6165 4.59093 48.6972 4.39596C48.778 4.201 48.9147 4.03435 49.0902 3.91711C49.2657 3.79987 49.472 3.73729 49.683 3.73729C49.8233 3.73676 49.9623 3.76399 50.0921 3.81741C50.2218 3.87083 50.3397 3.94939 50.439 4.04857C50.5383 4.14774 50.6169 4.26557 50.6705 4.39527C50.724 4.52496 50.7514 4.66397 50.751 4.80429H50.75ZM53.775 5.88629C53.8045 4.49935 53.2868 3.15655 52.334 2.14829C51.3237 1.19869 49.9823 0.681572 48.596 0.707287C47.123 0.623287 42.709 0.623287 41.236 0.707287C39.8501 0.679639 38.5085 1.19542 37.498 2.14429C36.5493 3.15473 36.0342 4.49659 36.063 5.88229C35.979 7.35529 35.979 11.7693 36.063 13.2423C36.0335 14.6292 36.5512 15.972 37.504 16.9803C38.5146 17.9286 39.8553 18.4453 41.241 18.4203C42.714 18.5043 47.128 18.5043 48.601 18.4203C49.9879 18.4498 51.3307 17.9321 52.339 16.9793C53.2865 15.9685 53.8018 14.6275 53.775 13.2423C53.863 11.7693 53.863 7.35929 53.775 5.88629ZM51.875 14.8203C51.7237 15.2053 51.4946 15.5549 51.2021 15.8474C50.9096 16.1399 50.56 16.3689 50.175 16.5203C49.001 16.9863 46.214 16.8783 44.917 16.8783C43.62 16.8783 40.829 16.9783 39.659 16.5203C39.274 16.3689 38.9244 16.1399 38.6319 15.8474C38.3394 15.5549 38.1103 15.2053 37.959 14.8203C37.493 13.6463 37.601 10.8593 37.601 9.56229C37.601 8.26529 37.501 5.47429 37.959 4.30429C38.1103 3.91932 38.3394 3.56968 38.6319 3.27719C38.9244 2.9847 39.274 2.75563 39.659 2.60429C40.833 2.13829 43.62 2.24629 44.917 2.24629C46.214 2.24629 49.005 2.14629 50.175 2.60429C50.56 2.75563 50.9096 2.9847 51.2021 3.27719C51.4946 3.56968 51.7237 3.91932 51.875 4.30429C52.341 5.47829 52.233 8.26529 52.233 9.56229C52.233 10.8593 52.343 13.6523 51.875 14.8203Z" fill="#1D1D1F"/>
<path d="M98.285 5.41344C98.298 5.59444 98.298 5.77544 98.298 5.95644C98.3092 7.52019 98.0094 9.07056 97.4161 10.5174C96.8229 11.9643 95.9479 13.2788 94.8422 14.3846C93.7364 15.4904 92.4219 16.3653 90.975 16.9586C89.5281 17.5519 87.9777 17.8516 86.414 17.8404C84.14 17.8465 81.9127 17.1954 80 15.9654C80.335 16.0024 80.6719 16.0198 81.009 16.0174C82.8891 16.0222 84.7161 15.3933 86.195 14.2324C85.3231 14.2163 84.4779 13.9281 83.7778 13.4082C83.0777 12.8882 82.5575 12.1625 82.29 11.3324C82.551 11.3739 82.8147 11.3956 83.079 11.3974C83.4502 11.3965 83.8198 11.3488 84.179 11.2554C83.2331 11.0641 82.3826 10.5512 81.772 9.80374C81.1615 9.05631 80.8286 8.12053 80.83 7.15544V7.10644C81.4088 7.42936 82.0557 7.61096 82.718 7.63644C81.8316 7.04518 81.2042 6.13792 80.9639 5.09982C80.7236 4.06173 80.8885 2.97107 81.425 2.05044C82.4741 3.34175 83.7829 4.39815 85.2665 5.15115C86.7501 5.90415 88.3754 6.33693 90.037 6.42144C89.9711 6.10669 89.9376 5.78602 89.937 5.46444C89.9391 4.62793 90.192 3.81126 90.6631 3.12002C91.1342 2.42878 91.8019 1.89475 92.5797 1.58698C93.3575 1.2792 94.2098 1.21183 95.0263 1.39357C95.8429 1.57531 96.5861 1.99781 97.16 2.60644C98.0954 2.42619 98.9924 2.08478 99.811 1.59744C99.4992 2.56194 98.8464 3.37967 97.975 3.89744C98.8044 3.80287 99.6151 3.58479 100.38 3.25044C99.8081 4.08316 99.0999 4.81341 98.285 5.41044V5.41344Z" fill="#1D1D1F"/>
</svg>
